<svg width="16" height="16" viewBox="0 0 16 16" fill="none" xmlns="http://www.w3.org/2000/svg">
<path d="M14.0938 11.6886C13.5976 11.1886 12.3957 10.4589 11.8126 10.1649C11.0532 9.78235 10.9907 9.7511 10.3938 10.1945C9.99568 10.4905 9.73099 10.7549 9.26506 10.6555C8.79912 10.5561 7.78662 9.99579 6.90006 9.11204C6.01349 8.22829 5.42068 7.18641 5.32099 6.72204C5.22131 6.25766 5.49006 5.9961 5.78318 5.59704C6.19631 5.03454 6.16506 4.94079 5.81193 4.18141C5.53662 3.59079 4.78568 2.40016 4.28381 1.90641C3.74693 1.3761 3.74693 1.46985 3.40099 1.6136C3.11936 1.7321 2.84917 1.87613 2.59381 2.04391C2.09381 2.3761 1.81631 2.65204 1.62224 3.06672C1.42818 3.48141 1.34099 4.4536 2.34318 6.27422C3.34537 8.09485 4.04849 9.02579 5.50381 10.477C6.95912 11.9283 8.07818 12.7086 9.71412 13.6261C11.7379 14.7595 12.5141 14.5386 12.9301 14.3449C13.346 14.1511 13.6232 13.8761 13.956 13.3761C14.1242 13.1212 14.2686 12.8513 14.3872 12.5699C14.5313 12.2252 14.6251 12.2252 14.0938 11.6886Z" stroke="#9CA3AF" stroke-miterlimit="10"/>
</svg>
