<svg width="16" height="16" viewBox="0 0 16 16" fill="none" xmlns="http://www.w3.org/2000/svg">
<path d="M8 1.25049C6.66498 1.25049 5.35994 1.64637 4.2499 2.38807C3.13987 3.12977 2.27471 4.18397 1.76382 5.41738C1.25292 6.65078 1.11925 8.00798 1.3797 9.31735C1.64015 10.6267 2.28303 11.8295 3.22703 12.7735C4.17104 13.7175 5.37377 14.3603 6.68314 14.6208C7.99252 14.8812 9.34972 14.7476 10.5831 14.2367C11.8165 13.7258 12.8707 12.8606 13.6124 11.7506C14.3541 10.6406 14.75 9.33551 14.75 8.00049C14.75 6.21028 14.0388 4.49339 12.773 3.22752C11.5071 1.96165 9.79021 1.25049 8 1.25049Z" stroke="#4B5563" stroke-width="1.5" stroke-miterlimit="10"/>
</svg>
