<svg width="17" height="17" viewBox="0 0 17 17" fill="none" xmlns="http://www.w3.org/2000/svg">
<path d="M3.5954 9.69335L3.03069 11.778L0.966705 11.8212C0.349876 10.6898 0 9.39544 0 8.01993C0 6.68982 0.327125 5.4355 0.906977 4.33105H0.907421L2.74495 4.66418L3.5499 6.47033C3.38142 6.95602 3.2896 7.4774 3.2896 8.01993C3.28966 8.60873 3.39752 9.17288 3.5954 9.69335Z" fill="#FBBB00"/>
<path d="M16.0816 6.52075C16.1748 7.00605 16.2233 7.50724 16.2233 8.01945C16.2233 8.59381 16.1623 9.15407 16.0459 9.69449C15.6511 11.5335 14.6193 13.1393 13.19 14.2757L13.1895 14.2752L10.875 14.1584L10.5475 12.1361C11.4959 11.5859 12.2371 10.7251 12.6275 9.69449H8.29004V6.52075H12.6908H16.0816Z" fill="#518EF8"/>
<path d="M13.1892 14.274L13.1896 14.2744C11.7995 15.3793 10.0337 16.0404 8.11143 16.0404C5.02235 16.0404 2.33662 14.333 0.966553 11.8205L3.59525 9.69263C4.28026 11.5005 6.04387 12.7874 8.11143 12.7874C9.00013 12.7874 9.83271 12.5499 10.5471 12.1351L13.1892 14.274Z" fill="#28B446"/>
<path d="M13.2894 1.84647L10.6616 3.97367C9.92224 3.51668 9.04821 3.2527 8.11183 3.2527C5.99747 3.2527 4.20088 4.59855 3.55018 6.47106L0.90767 4.33196H0.907227C2.25723 1.75834 4.97683 0 8.11183 0C10.08 0 11.8846 0.693211 13.2894 1.84647Z" fill="#F14336"/>
</svg>
