<svg width="22" height="22" viewBox="0 0 22 22" fill="none" xmlns="http://www.w3.org/2000/svg">
<path d="M20.1408 16.5317C19.3964 15.7817 17.5936 14.6871 16.7189 14.2461C15.5798 13.6723 15.4861 13.6254 14.5908 14.2906C13.9936 14.7345 13.5966 15.1311 12.8976 14.982C12.1987 14.8329 10.68 13.9925 9.35015 12.6668C8.0203 11.3412 7.13108 9.7784 6.98155 9.08184C6.83202 8.38527 7.23515 7.99293 7.67483 7.39434C8.29452 6.55058 8.24765 6.40996 7.71796 5.2709C7.30499 4.38496 6.17858 2.59902 5.42577 1.8584C4.62046 1.06293 4.62046 1.20355 4.10155 1.41918C3.6791 1.59692 3.27382 1.81298 2.89077 2.06465C2.14077 2.56293 1.72452 2.97683 1.43343 3.59887C1.14233 4.2209 1.01155 5.67918 2.51483 8.41012C4.01812 11.1411 5.0728 12.5375 7.25577 14.7143C9.43874 16.8912 11.1173 18.0617 13.5712 19.4379C16.6069 21.1381 17.7712 20.8067 18.3951 20.5161C19.0191 20.2254 19.4348 19.8129 19.9341 19.0629C20.1864 18.6805 20.4029 18.2757 20.5809 17.8536C20.797 17.3365 20.9376 17.3365 20.1408 16.5317Z" stroke="#4B5563" stroke-width="1.5" stroke-miterlimit="10"/>
</svg>
