<svg width="24" height="24" viewBox="0 0 24 24" fill="none" xmlns="http://www.w3.org/2000/svg">
<g clip-path="url(#clip0_38_391)">
<path d="M23.8425 6.97453C23.8425 4.86516 22.291 3.16828 20.3738 3.16828C17.7769 3.04687 15.1285 3 12.4219 3H11.5782C8.87815 3 6.22503 3.04687 3.62815 3.16875C1.71565 3.16875 0.164088 4.875 0.164088 6.98437C0.0469007 8.65266 -0.00278685 10.3214 2.56512e-05 11.9902C-0.00466185 13.6589 0.0484632 15.3292 0.159401 17.0011C0.159401 19.1105 1.71096 20.8214 3.62346 20.8214C6.35159 20.948 9.15003 21.0042 11.9953 20.9995C14.8453 21.0089 17.636 20.9495 20.3672 20.8214C22.2844 20.8214 23.836 19.1105 23.836 17.0011C23.9485 15.3277 24 13.6589 23.9953 11.9855C24.006 10.3167 23.955 8.64641 23.8425 6.97453ZM9.70315 16.5886V7.37766L16.5 11.9808L9.70315 16.5886Z" fill="#D1D5DB"/>
</g>
<defs>
<clipPath id="clip0_38_391">
<rect width="24" height="24" fill="white"/>
</clipPath>
</defs>
</svg>
