<svg width="24" height="24" viewBox="0 0 24 24" fill="none" xmlns="http://www.w3.org/2000/svg">
<path d="M12 4.50049V2.62549" stroke="#4B5563" stroke-width="1.5" stroke-linecap="round" stroke-linejoin="round"/>
<path d="M12 21.3755V19.5005" stroke="#4B5563" stroke-width="1.5" stroke-linecap="round" stroke-linejoin="round"/>
<path d="M12 5.25049C10.665 5.25049 9.35994 5.64637 8.2499 6.38807C7.13987 7.12977 6.27471 8.18397 5.76382 9.41738C5.25292 10.6508 5.11925 12.008 5.3797 13.3173C5.64015 14.6267 6.28303 15.8295 7.22703 16.7735C8.17104 17.7175 9.37377 18.3603 10.6831 18.6208C11.9925 18.8812 13.3497 18.7476 14.5831 18.2367C15.8165 17.7258 16.8707 16.8606 17.6124 15.7506C18.3541 14.6406 18.75 13.3355 18.75 12.0005C18.75 10.2103 18.0388 8.49339 16.773 7.22752C15.5071 5.96165 13.7902 5.25049 12 5.25049Z" stroke="#4B5563" stroke-width="1.5" stroke-miterlimit="10"/>
<path d="M19.5 12.0005H21.375" stroke="#4B5563" stroke-width="1.5" stroke-linecap="round" stroke-linejoin="round"/>
<path d="M2.625 12.0005H4.5" stroke="#4B5563" stroke-width="1.5" stroke-linecap="round" stroke-linejoin="round"/>
</svg>
